<svg width="50" height="66" viewBox="0 0 50 66" fill="none" xmlns="http://www.w3.org/2000/svg">
<g clip-path="url(#clip0_1560_1705)">
<path d="M18.589 45.6236L21.117 45.4796C18.4873 47.3183 17.8112 53.3083 19.1975 56.2368C20.0191 57.9724 20.8371 59.3107 22.0428 60.4248C25.2634 62.7641 27.3625 63.3172 31.34 63.3172C33.45 63.3172 35.4527 62.8535 36.9349 62.3336C38.442 61.8137 39.7762 60.6883 40.7308 59.7723C42.1967 58.6447 43.3541 56.4118 43.6224 53.65C43.8396 51.4134 43.0891 49.0138 42.436 47.7759C41.7829 46.5133 40.866 45.4487 39.6854 44.5821C38.5299 43.6909 37.1358 42.9234 35.503 42.2797C33.8702 41.636 32.0742 40.9675 30.1149 40.2743C28.1555 39.5811 26.2841 38.8507 24.5007 38.0833C22.7422 37.3157 21.1849 36.3626 19.8283 35.2237C18.4719 34.0849 17.3918 32.6983 16.588 31.0643C15.8092 29.4056 15.4199 27.3507 15.4199 24.8996C15.4199 22.5971 15.7967 20.4928 16.5503 18.5864C17.3039 16.68 18.4217 15.0583 19.9038 13.7214C21.3858 12.3597 23.2195 11.3075 25.4049 10.5648C27.6154 9.82203 30.1776 9.45068 33.0915 9.45068C34.247 9.45068 36.2806 9.7287 37.073 9.9965C43.4072 12.1745 46.6145 15.0955 47.2221 25.4196H45.1112C44.8851 22.7457 44.3828 20.567 43.604 18.8835C42.8254 17.1999 41.8708 15.8877 40.7404 14.9469C39.6352 13.9814 38.3917 13.3253 37.0102 12.9787C35.6537 12.6074 34.2596 12.4216 32.8277 12.4216C30.9187 12.4216 29.2608 12.6568 27.8541 13.1272C26.4474 13.5729 25.2793 14.229 24.3499 15.0955C23.4204 15.9373 22.7171 16.9771 22.2399 18.215C21.7877 19.4281 21.5617 20.8022 21.5617 22.3372C21.5617 24.1693 21.8882 25.6919 22.5413 26.905C23.1944 28.1181 24.1112 29.1704 25.2919 30.0616C26.4976 30.9282 27.9295 31.7081 29.5874 32.4013C31.2704 33.0698 33.1166 33.7754 35.1262 34.5181C36.9599 35.2113 38.7559 35.9541 40.5144 36.7463C42.2979 37.5138 43.8803 38.4917 45.2619 39.6802C46.6686 40.8438 47.799 42.292 48.6531 44.0252C49.5072 45.7335 49.9342 47.8626 49.9342 50.4127C49.9342 52.8885 49.4946 55.092 48.6154 57.023C47.7613 58.9542 46.5179 60.5758 44.8852 61.888C43.2775 63.2001 41.3056 64.2028 38.9695 64.8961C36.6334 65.5893 33.9958 65.9359 31.0568 65.9359C29.7757 65.9359 26.3773 65.7212 24.3239 65.0881C21.6379 64.0574 19.7452 62.9066 18.5355 60.7994C17.1874 58.4511 16.555 56.8912 16.588 53.65C16.6141 51.0844 17.5555 48.2199 18.589 45.6236Z" fill="#ECEDEE"/>
<path d="M45.9684 40.3196C40.5586 33.8743 9.32118 26.7679 29.959 0C-5.79728 15.8058 16.5204 31.1017 16.5204 31.1017C16.5204 31.1017 4.28166 31.1017 7.40134 13.7663C-16.3562 52.2611 24.6795 39.2595 24.6795 39.2595C16.5696 45.8377 8.36124 44.1033 8.36124 44.1033C21.0102 51.2318 27.934 39.5818 45.9684 40.3196Z" fill="#76CBED"/>
<path d="M31.7717 39.5073C26.8169 38.6529 29.1282 38.4918 24.6366 39.2506C16.6032 45.7949 8.4668 44.1576 8.4668 44.1576C20.0629 48.9225 19.6152 39.5179 31.7717 39.5073Z" fill="#3B9EC5"/>
<path d="M26.1214 35.1262C21.2793 32.6614 21.3752 33.0257 16.4445 31.1124C3.80094 29.7063 7.29109 14.0115 7.29109 14.0115C1.34567 29.0517 1.90869 29.3462 26.1214 35.1262Z" fill="#3B9EC5"/>
<path d="M45.9535 40.2729C33.3443 29.4751 12.0598 25.5682 29.5265 0.203613C6.68538 22.2066 25.5929 28.6092 25.5929 28.6092C38.512 35.2305 45.9535 40.2729 45.9535 40.2729Z" fill="#3B9EC5"/>
</g>
<defs>
<clipPath id="clip0_1560_1705">
<rect width="50" height="66" fill="white"/>
</clipPath>
</defs>
</svg>
