<svg width="80" height="105" viewBox="0 0 80 105" fill="none" xmlns="http://www.w3.org/2000/svg">
<g clip-path="url(#clip0_1560_561)">
<path d="M29.7424 72.5831L33.7872 72.3539C29.5797 75.2791 28.498 84.8086 30.716 89.4677C32.0305 92.2288 33.3394 94.358 35.2685 96.1305C40.4215 99.852 43.7801 100.732 50.144 100.732C53.5199 100.732 56.7244 99.9943 59.0958 99.1672C61.5072 98.34 63.6419 96.5496 65.1692 95.0923C67.5147 93.2985 69.3666 89.7461 69.7958 85.3523C70.1434 81.794 68.9426 77.9766 67.8976 76.0072C66.8526 73.9984 65.3856 72.3048 63.4966 70.9262C61.6478 69.5083 59.4173 68.2873 56.8048 67.2632C54.1923 66.2392 51.3187 65.1757 48.1838 64.0728C45.0488 62.97 42.0545 61.808 39.201 60.5871C36.3876 59.366 33.8958 57.8496 31.7253 56.0378C29.5551 54.226 27.8269 52.0201 26.5408 49.4206C25.2948 46.7817 24.6719 43.5125 24.6719 39.6131C24.6719 35.95 25.2747 32.6021 26.4805 29.5693C27.6862 26.5364 29.4747 23.9565 31.846 21.8295C34.2173 19.6632 37.1512 17.9893 40.6478 16.8077C44.1847 15.626 48.2842 15.0352 52.9465 15.0352C54.7952 15.0352 58.049 15.4775 59.3169 15.9036C69.4515 19.3686 74.5831 24.0155 75.5554 40.4403H72.178C71.8162 36.1863 71.0124 32.7202 69.7665 30.042C68.5206 27.3636 66.9933 25.276 65.1847 23.7793C63.4163 22.2432 61.4267 21.1994 59.2163 20.648C57.0459 20.0572 54.8153 19.7617 52.5244 19.7617C49.4699 19.7617 46.8173 20.1359 44.5666 20.8843C42.3158 21.5932 40.4469 22.6371 38.9598 24.0155C37.4727 25.3548 36.3474 27.0091 35.5838 28.9785C34.8603 30.9084 34.4987 33.0944 34.4987 35.5365C34.4987 38.4512 35.021 40.8735 36.066 42.8035C37.111 44.7334 38.578 46.4075 40.467 47.8254C42.3962 49.204 44.6872 50.4447 47.3398 51.5476C50.0326 52.611 52.9866 53.7336 56.2019 54.9151C59.1359 56.018 62.0095 57.1997 64.823 58.4601C67.6766 59.6811 70.2085 61.2369 72.4191 63.1276C74.6698 64.9788 76.4784 67.2828 77.8449 70.0401C79.2115 72.7578 79.8946 76.1451 79.8946 80.2021C79.8946 84.1408 79.1913 87.6464 77.7847 90.7185C76.4181 93.7907 74.4287 96.3706 71.8163 98.4582C69.244 100.546 66.089 102.141 62.3512 103.244C58.6134 104.347 54.3933 104.898 49.6909 104.898C47.6412 104.898 42.2037 104.556 38.9183 103.549C34.6206 101.91 31.5923 100.079 29.6567 96.7263C27.4998 92.9904 26.488 90.5088 26.5408 85.3523C26.5825 81.2707 28.0888 76.7136 29.7424 72.5831Z" fill="#F5F5F5"/>
<path d="M73.5494 64.1448C64.8937 53.8909 14.9139 42.5853 47.9344 0C-9.27564 25.1456 26.4326 49.48 26.4326 49.48C26.4326 49.48 6.85066 49.48 11.8421 21.901C-26.1699 83.1427 39.4872 62.4584 39.4872 62.4584C26.5114 72.9237 13.378 70.1644 13.378 70.1644C33.6164 81.5052 44.6944 62.9711 73.5494 64.1448Z" fill="#76CBED"/>
<path d="M50.8346 62.8525C42.907 61.4932 46.6052 61.2369 39.4185 62.444C26.5651 72.8555 13.5469 70.2506 13.5469 70.2506C32.1006 77.8311 31.3844 62.8692 50.8346 62.8525Z" fill="#3B9EC5"/>
<path d="M41.7959 55.8826C34.0485 51.9612 34.2019 52.5409 26.3127 49.497C6.08306 47.26 11.6673 22.291 11.6673 22.291C2.15464 46.2186 3.05547 46.6871 41.7959 55.8826Z" fill="#3B9EC5"/>
<path d="M73.5264 64.0706C53.3517 46.8923 19.2964 40.6768 47.2432 0.324036C10.6974 35.3288 40.9494 45.5148 40.9494 45.5148C61.6201 56.0487 73.5264 64.0706 73.5264 64.0706Z" fill="#3B9EC5"/>
</g>
<defs>
<clipPath id="clip0_1560_561">
<rect width="80" height="105" fill="white"/>
</clipPath>
</defs>
</svg>
