<svg width="130" height="70" viewBox="0 0 130 70" fill="none" xmlns="http://www.w3.org/2000/svg">
<path d="M0 19.1792V38.3584H3.40476H6.80953V30.3606V22.3628H15.0119H23.2143V19.3345V16.3062H15.0119H6.80953L6.84048 11.1349L6.88691 5.979L15.8167 5.93241L24.7619 5.90135V2.95071V6.86646e-05H12.381H0V19.1792Z" fill="black"/>
<path d="M59.5834 7.45461V11.1817H57.4941H55.4048V13.8218V16.4618H57.4941H59.5834V23.4968C59.5834 30.0037 59.6144 30.6404 59.8929 31.743C60.0632 32.4108 60.4191 33.3581 60.6822 33.8551C61.3632 35.1285 62.8489 36.5262 64.2572 37.194C65.9441 38.0015 67.1513 38.2189 70.5406 38.3121L73.512 38.4053V35.672V32.9544L70.9894 32.8922C68.6525 32.8456 68.4203 32.8146 67.7084 32.4419C67.1667 32.1623 66.7953 31.8362 66.4703 31.2927L66.006 30.5473L65.9596 23.4968L65.9132 16.4618H69.6429H73.3572V13.8218V11.1817H69.6429H65.9286V7.45461V3.72748H62.756H59.5834V7.45461Z" fill="black"/>
<path d="M38.5357 10.716C36.6166 10.8713 35.1 11.2751 33.4285 12.0671C32.2523 12.6417 31.7416 12.9989 30.8595 13.8841C29.3119 15.437 28.6464 16.9434 28.3833 19.4437L28.275 20.4997H31.2928H34.3261L34.4345 19.8009C34.6666 18.1858 35.5178 17.0676 37.019 16.3688C37.9476 15.934 38.1023 15.9184 40.1607 15.9184C42.1107 15.9184 42.4047 15.9495 43.1476 16.2912C44.2154 16.7726 45.2678 17.9373 45.5773 18.9778C45.7012 19.4126 45.8559 20.4221 45.9023 21.2141L46.0107 22.6428L40.6095 22.7204C34.6357 22.7981 34.1404 22.8602 32.0976 23.8386C30.1476 24.7859 28.7547 26.3389 28.1821 28.1869C27.2535 31.1997 27.8416 34.259 29.7452 36.2779C31.2309 37.8619 32.7631 38.4986 35.3785 38.6228C38.2571 38.7626 40.2071 38.2346 43.6892 36.34C44.7881 35.7343 45.7166 35.2529 45.7476 35.2529C45.7785 35.2529 45.8095 35.9517 45.8095 36.8059V38.3588H48.8273H51.8452V28.7615C51.8452 18.31 51.8143 18.046 50.9476 16.1359C49.1833 12.2379 44.5869 10.2346 38.5357 10.716ZM45.8095 28.6373V30.2679L43.4881 31.5258C40.3619 33.2185 39.4178 33.5602 37.6535 33.6689C36.4154 33.731 36.1523 33.6999 35.5178 33.3893C33.2892 32.3023 33.3976 28.6373 35.7035 27.6123C36.8023 27.1153 37.4988 27.0532 41.7547 27.0377L45.8095 27.0222V28.6373Z" fill="black"/>
<path d="M86.5893 10.8714C85.2119 11.0888 83.6333 11.6013 82.4107 12.238C80.8167 13.0611 78.8357 15.0799 78.1083 16.6174C77.0405 18.8847 76.994 19.1953 76.994 25.0034C76.994 30.7649 77.0405 31.1842 78.0464 33.2186C78.65 34.461 80.4762 36.3711 81.7143 37.0855C85.9548 39.4771 93.1976 39.3063 97.0357 36.6973C99.2953 35.1754 100.75 32.644 100.75 30.2525V29.507H97.8095C94.9155 29.507 94.8691 29.507 94.8691 29.8332C94.8691 30.4854 94.4976 31.3861 93.9714 31.9918C92.9036 33.2497 91.1238 33.7932 88.4774 33.669C85.7845 33.5292 84.3298 32.7217 83.4012 30.8115C82.9679 29.9419 82.8905 29.6002 82.8286 28.2647L82.7512 26.7117H91.7738H100.781L100.719 22.938C100.657 19.304 100.642 19.1332 100.224 17.9374C99.0012 14.3966 96.4476 12.0982 92.6869 11.182C91.1857 10.8093 88.0131 10.654 86.5893 10.8714ZM91.6964 16.3068C93.6619 17.0677 94.8226 18.8537 94.9774 21.385L95.0703 22.674H88.9107H82.7512L82.8441 21.385C82.8905 20.6862 83.0452 19.7699 83.2 19.3661C83.8345 17.72 85.2274 16.5087 87.0381 16.0428C88.2298 15.7477 90.5512 15.872 91.6964 16.3068Z" fill="black"/>
<path d="M115.623 10.8713C112.342 11.3371 109.479 12.9988 107.931 15.3283C107.606 15.8097 107.126 16.8191 106.879 17.549L106.399 18.869V24.7703V30.6716L106.817 31.9295C108.457 36.7592 113.41 39.3527 119.724 38.7005C125.806 38.0637 129.18 34.8491 129.629 29.2739L129.737 27.9539H126.719H123.701L123.608 28.9633C123.423 30.8735 122.587 32.1159 120.993 32.8613C120.08 33.2806 119.894 33.3116 118.006 33.3116C116.226 33.3116 115.901 33.2651 115.189 32.9389C114.245 32.5196 113.239 31.4947 112.775 30.4697C112.45 29.7709 112.435 29.5379 112.435 24.848C112.435 20.3909 112.466 19.894 112.729 19.1796C113.116 18.1702 114.183 17.0521 115.189 16.6017C115.901 16.2756 116.226 16.229 118.006 16.229C119.972 16.229 120.049 16.2445 121.055 16.7415C121.658 17.0365 122.293 17.5024 122.572 17.8286C123.113 18.4808 123.655 20.0804 123.655 20.9811V21.5867H126.688H129.737L129.629 20.2822C129.505 18.8535 129.072 17.0676 128.623 16.1669C127.338 13.6666 125.001 11.9273 121.906 11.1818C120.436 10.8091 117.139 10.6538 115.623 10.8713Z" fill="black"/>
<path d="M73.2024 50.1463V55.4419H74.9512C78.031 55.4419 79.3774 55.0537 80.306 53.9355C81.0024 53.0969 81.25 52.103 81.25 50.1618C81.25 47.3975 80.6155 46.093 78.8822 45.3321C78.1858 45.0215 77.7524 44.9749 75.6477 44.9128L73.2024 44.8506V50.1463ZM78.1548 46.8384C79.2072 47.4596 79.3155 47.7702 79.3155 50.1618C79.3155 52.103 79.2846 52.3515 78.9905 52.7553C78.4334 53.5007 77.7989 53.7647 76.375 53.8579L75.0596 53.9355V50.1618V46.3881L76.3441 46.4657C77.2572 46.5123 77.7989 46.621 78.1548 46.8384Z" fill="black"/>
<path d="M83.4633 45.0364C83.1847 45.1452 83.1073 45.3005 83.1073 45.7819C83.1073 46.108 83.1847 46.4497 83.293 46.5584C83.5097 46.7758 84.3299 46.8068 84.6549 46.6049C84.9025 46.4341 84.949 45.4247 84.7323 45.2073C84.4847 44.9743 83.8347 44.8812 83.4633 45.0364Z" fill="black"/>
<path d="M99.6668 46.8997V48.9186L98.862 48.4993C97.3144 47.7073 95.6584 48.0179 94.9465 49.2292C94.6834 49.6951 94.637 50.0367 94.637 51.7916C94.637 53.5465 94.6834 53.8881 94.9465 54.354C95.6584 55.5653 97.2989 55.8759 98.862 55.0684L99.6668 54.6646V55.0528C99.6668 55.41 99.7132 55.4411 100.441 55.4411H101.214V50.161V44.8809H100.441H99.6668V46.8997ZM98.8156 49.9591L99.6668 50.3784V51.7916V53.2048L98.8156 53.6241C97.8096 54.1211 97.0513 54.1521 96.5561 53.7483C96.2001 53.4688 96.1846 53.3446 96.1846 51.7916C96.1846 50.2386 96.2001 50.1144 96.5561 49.8349C97.0513 49.4311 97.8096 49.4621 98.8156 49.9591Z" fill="black"/>
<path d="M88.818 47.9725C87.6418 48.2209 86.8526 48.9508 86.6049 50.0379C86.5121 50.4728 86.5121 50.4728 87.3633 50.4728C88.0907 50.4728 88.2145 50.4262 88.2145 50.1932C88.2145 49.6342 88.7871 49.308 89.7776 49.308C90.8299 49.308 91.2323 49.6031 91.3871 50.4883L91.4954 51.0474L89.793 51.125C87.9514 51.2026 87.3633 51.4045 86.7752 52.2121C86.3728 52.7556 86.3418 53.998 86.7133 54.5726C87.4097 55.6131 88.8799 55.8305 90.3657 55.0851C91.3716 54.5726 91.4645 54.5726 91.4645 55.054C91.4645 55.4112 91.5109 55.4423 92.2383 55.4423H93.0121V52.8333C92.9966 49.5254 92.7799 48.8111 91.5728 48.252C90.9538 47.9569 89.5609 47.8172 88.818 47.9725ZM91.4645 52.6935C91.4645 53.1283 91.1704 53.4234 90.2728 53.8738C89.5609 54.2309 88.5395 54.3086 88.2454 54.0135C87.9823 53.7495 88.0133 52.9575 88.3228 52.6159C88.524 52.3829 88.818 52.3363 90.0252 52.3363C91.4335 52.3363 91.4645 52.3518 91.4645 52.6935Z" fill="black"/>
<path d="M105.47 47.9718C103.752 48.4066 103.072 49.5092 103.072 51.7921C103.072 53.1742 103.288 53.9196 103.861 54.5874C104.449 55.2396 105.176 55.5037 106.492 55.4881C108.179 55.4881 109.277 54.7893 109.525 53.578L109.618 53.1121H108.813C108.364 53.1121 108.024 53.1897 108.024 53.2674C108.024 53.3606 107.854 53.609 107.637 53.8109C107.235 54.2302 106.244 54.3389 105.486 54.0439C105.037 53.8886 104.619 53.1587 104.619 52.5685V52.1803H107.095H109.572V51.1398C109.572 49.7732 109.154 48.9035 108.287 48.3911C107.575 47.9718 106.213 47.7699 105.47 47.9718ZM107.668 49.7577C107.869 49.9906 108.024 50.3789 108.024 50.6429V51.0932H106.306H104.588L104.681 50.5807C104.727 50.3167 104.991 49.8819 105.254 49.6334C105.687 49.2452 105.826 49.1986 106.523 49.2763C107.126 49.3228 107.389 49.4471 107.668 49.7577Z" fill="black"/>
<path d="M125.496 47.9725C124.32 48.2209 123.531 48.9508 123.283 50.0379C123.191 50.4728 123.191 50.4728 124.042 50.4728C124.769 50.4728 124.893 50.4262 124.893 50.1932C124.893 49.6342 125.466 49.308 126.456 49.308C127.508 49.308 127.911 49.6031 128.066 50.4883L128.174 51.0474L126.471 51.125C124.63 51.2026 124.042 51.4045 123.454 52.2121C123.051 52.7556 123.02 53.998 123.392 54.5726C124.088 55.6131 125.558 55.8305 127.044 55.0851C128.05 54.5726 128.143 54.5726 128.143 55.054C128.143 55.4112 128.189 55.4423 128.917 55.4423H129.691V52.8333C129.675 49.5254 129.458 48.8111 128.251 48.252C127.632 47.9569 126.239 47.8172 125.496 47.9725ZM128.143 52.6935C128.143 53.1283 127.849 53.4234 126.951 53.8738C126.239 54.2309 125.218 54.3086 124.924 54.0135C124.661 53.7495 124.692 52.9575 125.001 52.6159C125.202 52.3829 125.496 52.3363 126.704 52.3363C128.112 52.3363 128.143 52.3518 128.143 52.6935Z" fill="black"/>
<path d="M83.1073 51.7148V55.4419H83.9585H84.8097V51.7148V47.9876H83.9585H83.1073V51.7148Z" fill="black"/>
<path d="M111.274 51.7148V55.4419H112.125H112.976V52.8329V50.2239L113.657 49.8823C114.4 49.5096 115.143 49.4474 115.421 49.727C115.545 49.8512 115.607 50.7364 115.607 52.6776V55.4419H116.458H117.31L117.34 52.8484L117.387 50.255L118.006 49.8978C118.687 49.5096 119.321 49.4474 119.6 49.727C119.724 49.8512 119.786 50.7364 119.786 52.6776V55.4419H120.652H121.519L121.457 52.4447C121.411 49.7736 121.38 49.4008 121.101 48.9194C120.513 47.9255 119.167 47.7858 117.743 48.5778L117.015 48.9815L116.598 48.5622C116.01 47.9721 114.787 47.9255 113.735 48.4691C112.961 48.8573 112.821 48.8418 112.821 48.3759C112.821 48.0187 112.775 47.9876 112.048 47.9876H111.274V51.7148Z" fill="black"/>
<path d="M76.1429 64.5263V68.1758H78.3869H80.631V67.6322V67.0887H79.006H77.381V63.9828V60.8768H76.7619H76.1429V64.5263Z" fill="black"/>
<path d="M87.5334 61.0792C87.3631 61.2034 87.2703 61.4364 87.3167 61.6693C87.3477 61.9644 87.4715 62.0575 87.8584 62.0886C88.2917 62.1352 88.3691 62.0886 88.4619 61.7159C88.5393 61.4053 88.4929 61.2345 88.2917 61.0792C87.9358 60.8307 87.8738 60.8307 87.5334 61.0792Z" fill="black"/>
<path d="M95.581 61.0792C95.4108 61.2034 95.3179 61.4364 95.3644 61.6693C95.3953 61.9644 95.5191 62.0575 95.906 62.0886C96.3394 62.1352 96.4167 62.0886 96.5096 61.7159C96.587 61.4053 96.5405 61.2345 96.3394 61.0792C95.9834 60.8307 95.9215 60.8307 95.581 61.0792Z" fill="black"/>
<path d="M100.595 64.5108V68.1758H101.214H101.833V66.7781V65.3804H102.886C104.588 65.3804 105.517 64.6971 105.656 63.346C105.733 62.5385 105.378 61.762 104.728 61.2806C104.356 61.0011 104.016 60.9389 102.437 60.8924L100.595 60.8458V64.5108ZM104.155 62.2745C104.341 62.4609 104.464 62.787 104.464 63.1286C104.464 63.9983 104.047 64.2934 102.839 64.2934H101.833V63.1286V61.9639H102.839C103.644 61.9639 103.907 62.026 104.155 62.2745Z" fill="black"/>
<path d="M123.593 61.0792C123.423 61.2034 123.33 61.4364 123.376 61.6693C123.407 61.9644 123.531 62.0575 123.918 62.0886C124.351 62.1352 124.429 62.0886 124.522 61.7159C124.599 61.4053 124.553 61.2345 124.351 61.0792C123.995 60.8307 123.933 60.8307 123.593 61.0792Z" fill="black"/>
<path d="M108.101 63.0357C107.111 63.2842 106.631 63.7501 106.631 64.4334C106.631 64.6974 106.724 64.7595 107.095 64.7595C107.358 64.7595 107.56 64.6819 107.56 64.6042C107.56 64.5111 107.699 64.3092 107.869 64.1383C108.535 63.4706 109.881 63.9365 109.881 64.8217C109.881 65.1633 109.819 65.1788 108.674 65.272C107.993 65.3031 107.312 65.4428 107.126 65.5516C106.414 66.0019 106.275 67.1356 106.832 67.8034C107.126 68.145 107.328 68.2227 107.9 68.2227C108.272 68.2227 108.813 68.1139 109.107 67.9742C109.742 67.6481 109.881 67.6481 109.881 67.9431C109.881 68.0984 110.051 68.1761 110.423 68.1761H110.964L110.949 66.4212C110.949 64.48 110.763 63.7501 110.191 63.3463C109.726 63.0202 108.751 62.8804 108.101 63.0357ZM109.881 66.3591C109.881 66.8405 108.844 67.4462 108.148 67.3685C107.714 67.3219 107.637 67.2598 107.591 66.856C107.513 66.2349 107.885 66.0019 108.983 66.0019C109.819 66.0019 109.881 66.033 109.881 66.3591Z" fill="black"/>
<path d="M114.214 63.1128C113.92 63.2216 113.549 63.3769 113.41 63.439C113.208 63.5166 113.131 63.4856 113.131 63.2992C113.131 63.1128 112.976 63.0507 112.589 63.0507H112.048V66.4673V69.8838H112.589H113.131V68.7191C113.131 68.0823 113.162 67.5543 113.193 67.5543C113.224 67.5543 113.58 67.6941 113.982 67.8805C114.864 68.2687 115.545 68.1911 116.118 67.632C116.69 67.0419 116.892 65.3957 116.52 64.0912C116.257 63.1439 115.236 62.7091 114.214 63.1128ZM115.452 64.2776C115.53 64.4484 115.607 65.0075 115.607 65.5355C115.607 66.0635 115.53 66.6226 115.452 66.7934C115.236 67.1816 114.539 67.1816 113.75 66.7779C113.131 66.4673 113.131 66.4517 113.131 65.551C113.131 64.6813 113.162 64.6192 113.642 64.3242C114.307 63.9049 115.236 63.8893 115.452 64.2776Z" fill="black"/>
<path d="M119.399 63.0357C118.408 63.2842 117.929 63.7501 117.929 64.4334C117.929 64.6974 118.021 64.7595 118.393 64.7595C118.656 64.7595 118.857 64.6819 118.857 64.6042C118.857 64.5111 118.996 64.3092 119.167 64.1383C119.832 63.4706 121.179 63.9365 121.179 64.8217C121.179 65.1633 121.117 65.1788 119.971 65.272C119.291 65.3031 118.61 65.4428 118.424 65.5516C117.712 66.0019 117.573 67.1356 118.13 67.8034C118.424 68.145 118.625 68.2227 119.198 68.2227C119.569 68.2227 120.111 68.1139 120.405 67.9742C121.039 67.6481 121.179 67.6481 121.179 67.9431C121.179 68.0984 121.349 68.1761 121.72 68.1761H122.262L122.246 66.4212C122.246 64.48 122.061 63.7501 121.488 63.3463C121.024 63.0202 120.049 62.8804 119.399 63.0357ZM121.179 66.3591C121.179 66.8405 120.142 67.4462 119.445 67.3685C119.012 67.3219 118.935 67.2598 118.888 66.856C118.811 66.2349 119.182 66.0019 120.281 66.0019C121.117 66.0019 121.179 66.033 121.179 66.3591Z" fill="black"/>
<path d="M81.5904 65.132C81.6368 67.0887 81.6677 67.244 82.0082 67.6167C82.6427 68.3 83.3392 68.2845 84.7011 67.5857C84.763 67.5546 84.8094 67.6788 84.8094 67.8497C84.8094 68.1137 84.9023 68.1758 85.3511 68.1758H85.8927V65.6134V63.051H85.3511H84.8094V64.8369V66.6073L84.3451 66.8558C83.7106 67.1819 82.9987 67.1508 82.7975 66.7936C82.7201 66.6228 82.6427 65.7221 82.6427 64.7748V63.051H82.0856H81.5285L81.5904 65.132Z" fill="black"/>
<path d="M87.2858 65.6134V68.1758H87.8275H88.3692V65.6134V63.051H87.8275H87.2858V65.6134Z" fill="black"/>
<path d="M90.7833 63.2065C89.8702 63.486 89.4059 64.3712 89.7464 65.2564C89.8548 65.567 89.8548 65.7068 89.6845 65.8465C89.2976 66.1727 89.2512 66.7939 89.5917 67.2598C89.7928 67.5393 89.9167 67.9275 89.9167 68.3313C89.9167 69.5737 91.2321 70.2725 92.8571 69.8998C94.1726 69.6047 94.7762 68.3158 93.9714 67.5082C93.6619 67.2132 93.4143 67.151 91.9595 67.0889C90.4274 67.0113 90.3036 66.9802 90.3036 66.7007C90.3036 66.4211 90.4428 66.3746 91.5726 66.2969C92.3619 66.2348 92.9964 66.095 93.244 65.9397C93.7857 65.5825 94.0179 64.9614 93.8167 64.4023C93.6774 64.014 93.6929 63.983 94.0333 63.983C94.3429 63.983 94.4048 63.9053 94.4048 63.5171V63.0512L92.8262 63.0667C91.944 63.0667 91.0309 63.1444 90.7833 63.2065ZM92.8107 64.2315C93.0893 64.6197 93.0583 64.8682 92.7024 65.2254C92.3619 65.567 91.4952 65.6447 90.9845 65.3807C90.5357 65.1322 90.5821 64.1849 91.0464 63.983C91.5417 63.7656 92.5786 63.9209 92.8107 64.2315ZM93.2286 68.2071C93.4607 68.5953 93.1821 68.9835 92.5476 69.1544C91.619 69.3873 90.8452 68.968 90.8452 68.2381C90.8452 67.8654 90.8607 67.8499 91.944 67.8965C92.7952 67.9275 93.0893 68.0052 93.2286 68.2071Z" fill="black"/>
<path d="M95.3334 65.6134V68.1758H95.8751H96.4167V65.6134V63.051H95.8751H95.3334V65.6134Z" fill="black"/>
<path d="M123.345 65.6134V68.1758H123.887H124.429V65.6134V63.051H123.887H123.345V65.6134Z" fill="black"/>
<path d="M125.667 63.5169V63.9828H127.06C127.833 63.9828 128.452 64.0294 128.452 64.0759C128.452 64.1225 127.833 64.868 127.06 65.7221C125.976 66.9179 125.667 67.3838 125.667 67.7254V68.1758H127.833H130V67.7099V67.2595L128.576 67.2129L127.152 67.1664L128.576 65.5668C129.69 64.3089 130 63.8741 130 63.5169V63.051H127.833H125.667V63.5169Z" fill="black"/>
</svg>
