<svg width="150" height="51" viewBox="0 0 150 51" fill="none" xmlns="http://www.w3.org/2000/svg">
<path d="M146.038 40.2393C146.038 39.348 145.91 38.5236 145.653 37.766C145.41 36.9862 144.903 36.2843 144.132 35.6604C143.376 35.0142 142.234 34.4572 140.706 33.9893C139.421 33.5659 138.257 33.0646 137.215 32.4853C136.187 31.906 135.309 31.2041 134.581 30.3797C133.867 29.5552 133.318 28.586 132.932 27.4719C132.547 26.3578 132.354 25.0544 132.354 23.5615C132.354 22.1355 132.554 20.7874 132.954 19.5174C133.368 18.2473 133.946 17.1221 134.688 16.1417C135.445 15.1613 136.352 14.3926 137.408 13.8356C138.465 13.2785 139.642 13 140.941 13C142.797 13 144.382 13.5125 145.696 14.5374C147.009 15.5624 148.016 16.9327 148.715 18.6484C149.415 20.3418 149.764 22.2246 149.764 24.2968H145.803C145.803 23.2941 145.61 22.3249 145.224 21.389C144.853 20.4309 144.304 19.6399 143.576 19.016C142.862 18.3922 141.984 18.0802 140.941 18.0802C139.842 18.0802 138.95 18.3476 138.265 18.8823C137.594 19.3948 137.101 20.0521 136.787 20.8543C136.487 21.6564 136.337 22.5031 136.337 23.3944C136.337 24.0628 136.409 24.6644 136.551 25.1992C136.708 25.7117 136.98 26.1907 137.365 26.6364C137.751 27.0597 138.293 27.4608 138.993 27.8396C139.692 28.2183 140.585 28.5971 141.67 28.9759C143.568 29.6444 145.132 30.4465 146.359 31.3823C147.587 32.3182 148.501 33.4657 149.101 34.8249C149.7 36.184 150 37.8329 150 39.7714C150 41.3534 149.786 42.8017 149.358 44.1163C148.944 45.4309 148.337 46.5673 147.537 47.5254C146.752 48.4612 145.81 49.1965 144.711 49.7313C143.625 50.2437 142.405 50.5 141.049 50.5C139.007 50.5 137.28 49.9318 135.866 48.7954C134.453 47.6591 133.382 46.1885 132.654 44.3837C131.926 42.5789 131.562 40.6738 131.562 38.6684H135.545C135.602 40.3618 135.916 41.7099 136.487 42.7125C137.058 43.6929 137.758 44.3948 138.586 44.8182C139.414 45.2192 140.235 45.4198 141.049 45.4198C142.134 45.4198 143.04 45.1969 143.768 44.7513C144.511 44.3057 145.075 43.6929 145.46 42.9131C145.846 42.1332 146.038 41.242 146.038 40.2393Z" fill="black"/>
<path d="M122.525 41.8075V14H126.508V50.1631H122.718L122.525 41.8075ZM123.274 34.1872L124.923 34.1203C124.923 36.5267 124.759 38.7549 124.431 40.8048C124.117 42.8324 123.603 44.5927 122.889 46.0855C122.175 47.5784 121.24 48.7482 120.084 49.5949C118.927 50.4193 117.521 50.8315 115.865 50.8315C114.737 50.8315 113.702 50.5753 112.76 50.0628C111.832 49.5503 111.032 48.7593 110.361 47.6898C109.69 46.6203 109.169 45.2277 108.798 43.512C108.441 41.7963 108.263 39.7353 108.263 37.3289V14H112.224V37.3957C112.224 39.0223 112.339 40.3703 112.567 41.4398C112.81 42.4871 113.131 43.3226 113.531 43.9465C113.945 44.5481 114.402 44.9715 114.901 45.2166C115.415 45.4617 115.943 45.5842 116.486 45.5842C118.171 45.5842 119.505 45.0829 120.49 44.0802C121.476 43.0552 122.182 41.6849 122.611 39.9692C123.053 38.2313 123.274 36.3039 123.274 34.1872Z" fill="black"/>
<path d="M73.827 20.8543V49.8315H69.8439V13.6684H73.6129L73.827 20.8543ZM73.0133 30.3797L71.1716 30.2794C71.1859 27.8061 71.3929 25.5223 71.7926 23.4278C72.1924 21.311 72.7849 19.4728 73.5701 17.9131C74.3553 16.3534 75.3332 15.1502 76.5039 14.3035C77.6746 13.4345 79.0309 13 80.5727 13C81.6578 13 82.6571 13.2451 83.5708 13.7353C84.4845 14.2032 85.2769 14.9496 85.9479 15.9746C86.6189 16.9996 87.14 18.3142 87.5112 19.9184C87.8824 21.5227 88.068 23.4612 88.068 25.7339V49.8315H84.1062V26.0347C84.1062 24.1408 83.8992 22.6257 83.4852 21.4893C83.0854 20.3529 82.5144 19.5285 81.772 19.016C81.0296 18.4813 80.1587 18.2139 79.1594 18.2139C77.9887 18.2139 77.0107 18.537 76.2255 19.1832C75.4403 19.8293 74.8121 20.7206 74.341 21.8569C73.8699 22.9933 73.5272 24.2968 73.3131 25.7674C73.1132 27.2157 73.0133 28.7531 73.0133 30.3797ZM88.0251 26.9706L85.3697 28.2406C85.384 26.2576 85.591 24.3525 85.9907 22.5254C86.4047 20.6983 86.9972 19.0717 87.7681 17.6457C88.5534 16.2197 89.517 15.0945 90.6592 14.2701C91.8013 13.4234 93.1076 13 94.5781 13C95.8201 13 96.9194 13.2562 97.876 13.7687C98.8468 14.2812 99.6606 15.0722 100.317 16.1417C100.988 17.1889 101.495 18.537 101.838 20.1858C102.18 21.8347 102.352 23.7954 102.352 26.0682V49.8315H98.3685V26.0013C98.3685 23.9737 98.1615 22.4028 97.7475 21.2888C97.3477 20.1524 96.7767 19.3614 96.0343 18.9158C95.3062 18.4479 94.4353 18.2139 93.4217 18.2139C92.5508 18.2139 91.7799 18.4479 91.1089 18.9158C90.4379 19.3837 89.8739 20.0299 89.4171 20.8543C88.9602 21.6564 88.6105 22.5811 88.3678 23.6283C88.1393 24.6756 88.0251 25.7897 88.0251 26.9706Z" fill="black"/>
<path d="M59.8647 41.8075V14H63.8479V50.1631H60.0575L59.8647 41.8075ZM60.6143 34.1872L62.2632 34.1203C62.2632 36.5267 62.099 38.7549 61.7707 40.8048C61.4566 42.8324 60.9426 44.5927 60.2288 46.0855C59.515 47.5784 58.5798 48.7482 57.4234 49.5949C56.267 50.4193 54.8608 50.8315 53.2047 50.8315C52.0769 50.8315 51.0418 50.5753 50.0995 50.0628C49.1716 49.5503 48.3721 48.7593 47.7011 47.6898C47.0301 46.6203 46.509 45.2277 46.1378 43.512C45.7809 41.7963 45.6024 39.7353 45.6024 37.3289V14H49.5642V37.3957C49.5642 39.0223 49.6784 40.3703 49.9068 41.4398C50.1495 42.4871 50.4707 43.3226 50.8705 43.9465C51.2845 44.5481 51.7414 44.9715 52.241 45.2166C52.755 45.4617 53.2832 45.5842 53.8257 45.5842C55.5104 45.5842 56.8452 45.0829 57.8303 44.0802C58.8154 43.0552 59.5221 41.6849 59.9504 39.9692C60.393 38.2313 60.6143 36.3039 60.6143 34.1872Z" fill="black"/>
<path fill-rule="evenodd" clip-rule="evenodd" d="M36.7753 35.3935C36.835 35.9047 36.8649 36.4509 36.8649 37.0321C36.8649 38.614 36.6008 39.9844 36.0725 41.143C35.5586 42.3017 34.8019 43.1929 33.8026 43.8168C32.8032 44.4407 31.5825 44.7526 30.1406 44.7526C29.1412 44.7526 28.1776 44.5744 27.2496 44.2179C26.3359 43.8391 25.515 43.2598 24.7869 42.4799C24.0731 41.7001 23.5091 40.7197 23.0951 39.5387C22.6811 38.3355 22.4741 36.8984 22.4741 35.2272H18.3624C18.3624 37.6559 18.6979 39.795 19.3689 41.6443C20.0542 43.4714 20.9608 45.0089 22.0886 46.2566C23.2307 47.5044 24.4942 48.4402 25.879 49.0641C27.2781 49.688 28.6987 50 30.1406 50C31.7824 50 33.2672 49.6992 34.5949 49.0975C35.9369 48.4737 37.0862 47.5935 38.0427 46.4572C38.9992 45.3208 39.7345 43.9505 40.2484 42.3462C40.7624 40.7419 41.0194 38.9483 41.0194 36.9652C41.0194 35.0713 40.8124 33.3779 40.3983 31.885C39.9986 30.3698 39.3776 29.0218 38.5352 27.8409C37.7072 26.6377 36.6507 25.557 35.3658 24.5989C34.0809 23.6408 32.5534 22.7718 30.7831 21.992C29.4982 21.4349 28.3917 20.8556 27.4637 20.254C26.55 19.6524 25.7934 18.9951 25.1938 18.2821C24.6084 17.5691 24.173 16.8003 23.8875 15.9759C23.6162 15.1292 23.4806 14.1934 23.4806 13.1684C23.4806 11.6533 23.709 10.3052 24.1658 9.12432C24.637 7.9434 25.3508 7.00757 26.3073 6.31684C27.2639 5.62611 28.4774 5.28074 29.9479 5.28074C31.504 5.28074 32.7889 5.69295 33.8026 6.51737C34.8162 7.31951 35.5729 8.43359 36.0725 9.85962C36.5722 11.2634 36.8221 12.8788 36.8221 14.7059H40.9337C40.9337 12.1658 40.5054 9.78163 39.6488 7.55347C38.7922 5.30303 37.543 3.48707 35.9012 2.10561C34.2737 0.701871 32.2892 0 29.9479 0C28.3489 0 26.8998 0.334224 25.6006 1.00267C24.3015 1.67112 23.1808 2.60695 22.2385 3.81016C21.3105 4.99108 20.5967 6.38368 20.097 7.98796C19.5973 9.59224 19.3475 11.3413 19.3475 13.2353C19.3475 14.4955 19.4518 15.662 19.6604 16.7347C19.0203 16.4399 18.3765 16.1451 17.7338 15.8507C14.3884 14.3186 11.0706 12.7991 8.44467 11.3646C4.6835 9.31004 2.34177 7.43006 0 5.54997C0.945598 8.50614 1.89118 11.4623 3.046 13.4377C4.20082 15.4131 5.5648 16.4077 7.02986 17.4262C7.22442 17.5614 7.42076 17.6971 7.61502 17.8313C8.88358 18.7079 10.0632 19.523 10.0771 19.7582C10.0932 20.0296 8.55928 19.53 7.40651 19.0304C6.25374 18.5308 5.48219 18.0311 4.71063 17.5315L4.71062 17.5315C7.17689 20.289 9.64313 23.0466 10.1024 24.1419C10.5617 25.2372 9.01395 24.6703 7.46623 24.1035L7.46627 24.1035C10.479 27.1396 13.4919 30.1758 16.0883 31.4338C18.6847 32.6918 20.736 32.2024 22.4231 31.6887C22.5333 31.6552 22.642 31.6215 22.7496 31.5881C24.2898 31.111 25.6242 30.6975 28.363 31.5642C30.5132 32.2446 33.529 33.714 36.7753 35.3935Z" fill="black"/>
</svg>
