<svg width="513" height="150" viewBox="0 0 513 150" fill="none" xmlns="http://www.w3.org/2000/svg">
<path d="M496.578 109.231C496.578 105.69 496.067 102.414 495.046 99.4037C494.082 96.3051 492.068 93.5163 489.005 91.0374C485.998 88.47 481.46 86.2567 475.39 84.3975C470.285 82.7154 465.662 80.7234 461.521 78.4216C457.437 76.1197 453.948 73.331 451.055 70.0553C448.219 66.7796 446.035 62.9284 444.503 58.5018C442.972 54.0752 442.206 48.896 442.206 42.9643C442.206 37.2983 443 31.9421 444.588 26.8957C446.233 21.8494 448.531 17.3785 451.481 13.4831C454.487 9.58764 458.089 6.53327 462.287 4.31996C466.485 2.10665 471.164 1 476.326 1C483.701 1 489.997 3.03624 495.216 7.10873C500.435 11.1812 504.434 16.626 507.214 23.443C509.993 30.1714 511.383 37.6524 511.383 45.8859H495.642C495.642 41.902 494.876 38.0508 493.344 34.3324C491.869 30.5255 489.685 27.3826 486.792 24.9037C483.956 22.4248 480.467 21.1854 476.326 21.1854C471.959 21.1854 468.413 22.2478 465.69 24.3725C463.024 26.4088 461.067 29.0205 459.819 32.2077C458.628 35.3948 458.032 38.7591 458.032 42.3004C458.032 44.9563 458.316 47.3467 458.883 49.4715C459.507 51.5077 460.585 53.4112 462.117 55.1818C463.648 56.8639 465.804 58.4575 468.583 59.9626C471.363 61.4676 474.908 62.9727 479.219 64.4777C486.764 67.1337 492.975 70.3209 497.854 74.0392C502.732 77.7576 506.363 82.317 508.745 87.7175C511.128 93.1179 512.319 99.6693 512.319 107.372C512.319 113.657 511.468 119.412 509.766 124.635C508.121 129.859 505.71 134.374 502.534 138.181C499.414 141.899 495.67 144.821 491.302 146.946C486.991 148.982 482.141 150 476.752 150C468.64 150 461.776 147.742 456.16 143.227C450.545 138.712 446.29 132.869 443.397 125.698C440.504 118.527 439.058 110.957 439.058 102.989H454.884C455.111 109.718 456.359 115.074 458.628 119.058C460.897 122.953 463.677 125.742 466.967 127.424C470.257 129.018 473.518 129.815 476.752 129.815C481.063 129.815 484.665 128.929 487.558 127.159C490.508 125.388 492.749 122.953 494.28 119.855C495.812 116.756 496.578 113.215 496.578 109.231Z" fill="white"/>
<path d="M412.981 113.984V3H428.878V147.332H413.75L412.981 113.984ZM415.972 83.5699L422.553 83.3031C422.553 92.9074 421.898 101.8 420.587 109.982C419.334 118.074 417.283 125.1 414.434 131.058C411.585 137.016 407.852 141.685 403.237 145.064C398.622 148.355 393.009 150 386.399 150C381.898 150 377.767 148.977 374.006 146.932C370.303 144.887 367.112 141.73 364.434 137.461C361.756 133.192 359.676 127.634 358.194 120.787C356.77 113.939 356.058 105.713 356.058 96.1089V3H371.87V96.3757C371.87 102.868 372.325 108.248 373.237 112.516C374.206 116.696 375.488 120.031 377.083 122.521C378.736 124.922 380.559 126.612 382.553 127.59C384.605 128.568 386.713 129.057 388.878 129.057C395.602 129.057 400.929 127.056 404.861 123.054C408.793 118.964 411.613 113.495 413.323 106.647C415.089 99.7105 415.972 92.0182 415.972 83.5699Z" fill="white"/>
<path d="M231.955 34.3476V150H216.058V5.66788H231.1L231.955 34.3476ZM228.707 72.3648L221.357 71.9646C221.414 62.0935 222.24 52.9782 223.835 44.6189C225.431 36.1706 227.795 28.8339 230.929 22.6089C234.063 16.3838 237.966 11.5817 242.639 8.20236C247.311 4.73412 252.724 3 258.878 3C263.209 3 267.197 3.97822 270.844 5.93466C274.491 7.80218 277.653 10.7813 280.331 14.8721C283.009 18.9628 285.089 24.2096 286.57 30.6125C288.052 37.0154 288.793 44.7523 288.793 53.823V150H272.981V55.0236C272.981 47.4646 272.154 41.4174 270.502 36.882C268.907 32.3466 266.627 29.0563 263.664 27.0109C260.701 24.8766 257.226 23.8094 253.237 23.8094C248.565 23.8094 244.662 25.0989 241.528 27.6779C238.394 30.2568 235.887 33.814 234.006 38.3494C232.126 42.8848 230.758 48.0871 229.904 53.9564C229.106 59.7368 228.707 65.873 228.707 72.3648ZM288.622 58.7586L278.023 63.8276C278.08 55.9129 278.907 48.3094 280.502 41.0172C282.154 33.725 284.519 27.2332 287.596 21.5417C290.73 15.8503 294.576 11.3593 299.134 8.06897C303.693 4.68966 308.907 3 314.775 3C319.733 3 324.12 4.02269 327.938 6.06806C331.812 8.11343 335.06 11.2704 337.681 15.539C340.359 19.7187 342.382 25.0989 343.75 31.6797C345.117 38.2604 345.801 46.0862 345.801 55.157V150H329.904V54.8902C329.904 46.7976 329.077 40.5281 327.425 36.0817C325.83 31.5463 323.55 28.3893 320.587 26.6107C317.681 24.7432 314.206 23.8094 310.16 23.8094C306.684 23.8094 303.607 24.7432 300.929 26.6107C298.251 28.4782 296.001 31.0572 294.177 34.3476C292.354 37.549 290.958 41.2396 289.989 45.4192C289.077 49.5989 288.622 54.0454 288.622 58.7586Z" fill="white"/>
<path d="M189.981 113.984V3H205.878V147.332H190.75L189.981 113.984ZM192.972 83.5699L199.553 83.3031C199.553 92.9074 198.898 101.8 197.587 109.982C196.334 118.074 194.283 125.1 191.434 131.058C188.585 137.016 184.852 141.685 180.237 145.064C175.622 148.355 170.009 150 163.399 150C158.898 150 154.767 148.977 151.006 146.932C147.303 144.887 144.112 141.73 141.434 137.461C138.756 133.192 136.676 127.634 135.194 120.787C133.77 113.939 133.058 105.713 133.058 96.1089V3H148.87V96.3757C148.87 102.868 149.325 108.248 150.237 112.516C151.206 116.696 152.488 120.031 154.083 122.521C155.736 124.922 157.559 126.612 159.553 127.59C161.605 128.568 163.713 129.057 165.878 129.057C172.602 129.057 177.929 127.056 181.861 123.054C185.793 118.964 188.613 113.495 190.323 106.647C192.089 99.7105 192.972 92.0182 192.972 83.5699Z" fill="white"/>
<path d="M89.8438 0C96.8675 7.74496e-05 102.821 2.10547 107.703 6.31641C112.629 10.4607 116.377 15.9089 118.946 22.6602C121.516 29.3445 122.801 36.497 122.801 44.1172H110.466C110.466 38.6362 109.717 33.7901 108.218 29.5791C106.719 25.301 104.448 21.9582 101.407 19.5518C98.3664 17.0787 94.5119 15.8419 89.8438 15.8418C85.4324 15.8418 81.7914 16.8781 78.9219 18.9502C76.0523 21.0224 73.9105 23.8303 72.4971 27.373C71.1266 30.9157 70.4415 34.9597 70.4414 39.5049C70.4414 42.5797 70.8484 45.3876 71.6621 47.9277C72.5187 50.401 73.825 52.7076 75.5811 54.8467C77.3798 56.9855 79.6498 58.957 82.3906 60.7617C85.1745 62.5665 88.4941 64.3045 92.3486 65.9756C97.6595 68.3152 102.243 70.9225 106.098 73.7969C109.952 76.6711 113.121 79.913 115.605 83.5225C118.132 87.0652 119.995 91.1098 121.194 95.6553C122.436 100.134 123.058 105.214 123.058 110.896C123.058 116.845 122.287 122.226 120.745 127.039C119.203 131.852 116.997 135.963 114.128 139.372C111.258 142.781 107.81 145.421 103.784 147.293C99.8012 149.098 95.3471 150 90.4219 150C86.0961 150 81.834 149.064 77.6367 147.192C73.4824 145.321 69.6919 142.514 66.2656 138.771C62.8821 135.027 60.1623 130.415 58.1064 124.934C56.0934 119.385 55.0869 112.968 55.0869 105.682H67.4219C67.4219 110.695 68.0431 115.007 69.2852 118.616C70.5272 122.159 72.219 125.1 74.3604 127.439C76.5445 129.779 79.0072 131.517 81.748 132.653C84.532 133.723 87.4238 134.258 90.4219 134.258C94.7476 134.258 98.4092 133.322 101.407 131.45C104.405 129.579 106.676 126.905 108.218 123.429C109.802 119.953 110.595 115.842 110.595 111.097C110.595 109.353 110.504 107.714 110.325 106.18C100.587 101.142 91.5395 96.7336 85.0889 94.6924C76.2986 91.9108 72.3305 93.5243 67.2695 95.0654C62.2084 96.6066 56.0539 98.0748 48.2646 94.3008C40.4754 90.5266 31.4367 81.4179 22.3984 72.3096C27.0416 74.0102 31.6854 75.7108 30.3076 72.4248C28.9296 69.1387 21.5305 60.8663 14.1318 52.5938C16.4465 54.0927 18.7614 55.5919 22.2197 57.0908C25.6778 58.5895 30.2792 60.0882 30.2314 59.2744C30.1833 58.4605 25.4851 55.3336 21.0898 52.2783C16.6947 49.2229 12.6021 46.2388 9.1377 40.3125C5.67328 34.3862 2.83677 25.5178 0 16.6494C7.02532 22.2897 14.0505 27.93 25.334 34.0938C34.7261 39.2244 47.0673 44.7195 58.9824 50.207C58.3563 46.988 58.042 43.4878 58.042 39.7061C58.042 34.0242 58.792 28.7767 60.291 23.9639C61.79 19.1512 63.931 14.9734 66.7148 11.4307C69.5416 7.82104 72.9042 5.01316 76.8018 3.00781C80.6992 1.00252 85.0469 0 89.8438 0Z" fill="white"/>
</svg>
