<svg width="150" height="50" viewBox="0 0 150 50" fill="none" xmlns="http://www.w3.org/2000/svg">
<path d="M146.038 39.7393C146.038 38.848 145.91 38.0236 145.653 37.266C145.41 36.4862 144.903 35.7843 144.132 35.1604C143.376 34.5142 142.234 33.9572 140.706 33.4893C139.421 33.0659 138.257 32.5646 137.215 31.9853C136.187 31.406 135.309 30.7041 134.581 29.8797C133.867 29.0552 133.318 28.086 132.932 26.9719C132.547 25.8578 132.354 24.5544 132.354 23.0615C132.354 21.6355 132.554 20.2874 132.954 19.0174C133.368 17.7473 133.946 16.6221 134.688 15.6417C135.445 14.6613 136.352 13.8926 137.408 13.3356C138.465 12.7785 139.642 12.5 140.941 12.5C142.797 12.5 144.382 13.0125 145.696 14.0374C147.009 15.0624 148.016 16.4327 148.715 18.1484C149.415 19.8418 149.764 21.7246 149.764 23.7968H145.803C145.803 22.7941 145.61 21.8249 145.224 20.889C144.853 19.9309 144.304 19.1399 143.576 18.516C142.862 17.8922 141.984 17.5802 140.941 17.5802C139.842 17.5802 138.95 17.8476 138.265 18.3823C137.594 18.8948 137.101 19.5521 136.787 20.3543C136.487 21.1564 136.337 22.0031 136.337 22.8944C136.337 23.5628 136.409 24.1644 136.551 24.6992C136.708 25.2117 136.98 25.6907 137.365 26.1364C137.751 26.5597 138.293 26.9608 138.993 27.3396C139.692 27.7183 140.585 28.0971 141.67 28.4759C143.568 29.1444 145.132 29.9465 146.359 30.8823C147.587 31.8182 148.501 32.9657 149.101 34.3249C149.7 35.684 150 37.3329 150 39.2714C150 40.8534 149.786 42.3017 149.358 43.6163C148.944 44.9309 148.337 46.0673 147.537 47.0254C146.752 47.9612 145.81 48.6965 144.711 49.2313C143.625 49.7437 142.405 50 141.049 50C139.007 50 137.28 49.4318 135.866 48.2954C134.453 47.1591 133.382 45.6885 132.654 43.8837C131.926 42.0789 131.562 40.1738 131.562 38.1684H135.545C135.602 39.8618 135.916 41.2099 136.487 42.2125C137.058 43.1929 137.758 43.8948 138.586 44.3182C139.414 44.7192 140.235 44.9198 141.049 44.9198C142.134 44.9198 143.04 44.6969 143.768 44.2513C144.511 43.8057 145.075 43.1929 145.46 42.4131C145.846 41.6332 146.038 40.742 146.038 39.7393Z" fill="white"/>
<path d="M122.525 40.9759V13.1685H126.508V49.3315H122.718L122.525 40.9759ZM123.274 33.3556L124.923 33.2888C124.923 35.6952 124.759 37.9233 124.431 39.9733C124.117 42.0009 123.603 43.7611 122.889 45.254C122.175 46.7469 121.24 47.9166 120.084 48.7634C118.927 49.5878 117.521 50 115.865 50C114.737 50 113.702 49.7437 112.76 49.2313C111.832 48.7188 111.032 47.9278 110.361 46.8583C109.69 45.7888 109.169 44.3962 108.798 42.6805C108.441 40.9648 108.263 38.9037 108.263 36.4973V13.1685H112.224V36.5642C112.224 38.1907 112.339 39.5388 112.567 40.6083C112.81 41.6555 113.131 42.4911 113.531 43.115C113.945 43.7166 114.402 44.1399 114.901 44.385C115.415 44.6301 115.943 44.7527 116.486 44.7527C118.171 44.7527 119.505 44.2513 120.49 43.2486C121.476 42.2237 122.182 40.8534 122.611 39.1377C123.053 37.3997 123.274 35.4724 123.274 33.3556Z" fill="white"/>
<path d="M73.827 20.3543V49.3315H69.8439V13.1684H73.6129L73.827 20.3543ZM73.0133 29.8797L71.1716 29.7794C71.1859 27.3061 71.3929 25.0223 71.7926 22.9278C72.1924 20.811 72.7849 18.9728 73.5701 17.4131C74.3553 15.8534 75.3332 14.6502 76.5039 13.8035C77.6746 12.9345 79.0309 12.5 80.5727 12.5C81.6578 12.5 82.6571 12.7451 83.5708 13.2353C84.4845 13.7032 85.2769 14.4496 85.9479 15.4746C86.6189 16.4996 87.14 17.8142 87.5112 19.4184C87.8824 21.0227 88.068 22.9612 88.068 25.2339V49.3315H84.1062V25.5347C84.1062 23.6408 83.8992 22.1257 83.4852 20.9893C83.0854 19.8529 82.5144 19.0285 81.772 18.516C81.0296 17.9813 80.1587 17.7139 79.1594 17.7139C77.9887 17.7139 77.0107 18.037 76.2255 18.6832C75.4403 19.3293 74.8121 20.2206 74.341 21.3569C73.8699 22.4933 73.5272 23.7968 73.3131 25.2674C73.1132 26.7157 73.0133 28.2531 73.0133 29.8797ZM88.0251 26.4706L85.3697 27.7406C85.384 25.7576 85.591 23.8525 85.9907 22.0254C86.4047 20.1983 86.9972 18.5717 87.7681 17.1457C88.5534 15.7197 89.517 14.5945 90.6592 13.7701C91.8013 12.9234 93.1076 12.5 94.5781 12.5C95.8201 12.5 96.9194 12.7562 97.876 13.2687C98.8468 13.7812 99.6606 14.5722 100.317 15.6417C100.988 16.6889 101.495 18.037 101.838 19.6858C102.18 21.3347 102.352 23.2954 102.352 25.5682V49.3315H98.3685V25.5013C98.3685 23.4737 98.1615 21.9028 97.7475 20.7888C97.3477 19.6524 96.7767 18.8614 96.0343 18.4158C95.3062 17.9479 94.4353 17.7139 93.4217 17.7139C92.5508 17.7139 91.7799 17.9479 91.1089 18.4158C90.4379 18.8837 89.8739 19.5299 89.4171 20.3543C88.9602 21.1564 88.6105 22.0811 88.3678 23.1283C88.1393 24.1756 88.0251 25.2897 88.0251 26.4706Z" fill="white"/>
<path d="M59.8647 40.9759V13.1685H63.8479V49.3315H60.0575L59.8647 40.9759ZM60.6143 33.3556L62.2632 33.2888C62.2632 35.6952 62.099 37.9233 61.7707 39.9733C61.4566 42.0009 60.9426 43.7611 60.2288 45.254C59.515 46.7469 58.5798 47.9166 57.4234 48.7634C56.267 49.5878 54.8608 50 53.2047 50C52.0769 50 51.0418 49.7437 50.0995 49.2313C49.1716 48.7188 48.3721 47.9278 47.7011 46.8583C47.0301 45.7888 46.509 44.3962 46.1378 42.6805C45.7809 40.9648 45.6024 38.9037 45.6024 36.4973V13.1685H49.5642V36.5642C49.5642 38.1907 49.6784 39.5388 49.9068 40.6083C50.1495 41.6555 50.4707 42.4911 50.8705 43.115C51.2845 43.7166 51.7414 44.1399 52.241 44.385C52.755 44.6301 53.2832 44.7527 53.8257 44.7527C55.5104 44.7527 56.8452 44.2513 57.8303 43.2486C58.8154 42.2237 59.5221 40.8534 59.9504 39.1377C60.393 37.3997 60.6143 35.4724 60.6143 33.3556Z" fill="white"/>
<path fill-rule="evenodd" clip-rule="evenodd" d="M36.7753 35.3935C36.835 35.9047 36.8649 36.4509 36.8649 37.0321C36.8649 38.614 36.6008 39.9844 36.0725 41.143C35.5586 42.3017 34.8019 43.1929 33.8026 43.8168C32.8032 44.4407 31.5825 44.7526 30.1406 44.7526C29.1412 44.7526 28.1776 44.5744 27.2496 44.2179C26.3359 43.8391 25.515 43.2598 24.7869 42.4799C24.0731 41.7001 23.5091 40.7197 23.0951 39.5387C22.6811 38.3355 22.4741 36.8984 22.4741 35.2272H18.3624C18.3624 37.6559 18.6979 39.795 19.3689 41.6443C20.0542 43.4714 20.9608 45.0089 22.0886 46.2566C23.2307 47.5044 24.4942 48.4402 25.879 49.0641C27.2781 49.688 28.6987 50 30.1406 50C31.7824 50 33.2672 49.6992 34.5949 49.0975C35.9369 48.4737 37.0862 47.5935 38.0427 46.4572C38.9992 45.3208 39.7345 43.9505 40.2484 42.3462C40.7624 40.7419 41.0194 38.9483 41.0194 36.9652C41.0194 35.0713 40.8124 33.3779 40.3983 31.885C39.9986 30.3698 39.3776 29.0218 38.5352 27.8409C37.7072 26.6377 36.6507 25.557 35.3658 24.5989C34.0809 23.6408 32.5534 22.7718 30.7831 21.992C29.4982 21.4349 28.3917 20.8556 27.4637 20.254C26.55 19.6524 25.7934 18.9951 25.1938 18.2821C24.6084 17.5691 24.173 16.8003 23.8875 15.9759C23.6162 15.1292 23.4806 14.1934 23.4806 13.1684C23.4806 11.6533 23.709 10.3052 24.1658 9.12432C24.637 7.9434 25.3508 7.00757 26.3073 6.31684C27.2639 5.62611 28.4774 5.28074 29.9479 5.28074C31.504 5.28074 32.7889 5.69295 33.8026 6.51737C34.8162 7.31951 35.5729 8.43359 36.0725 9.85962C36.5722 11.2634 36.8221 12.8788 36.8221 14.7059H40.9337C40.9337 12.1658 40.5054 9.78163 39.6488 7.55347C38.7922 5.30303 37.543 3.48707 35.9012 2.10561C34.2737 0.701871 32.2892 0 29.9479 0C28.3489 0 26.8998 0.334224 25.6006 1.00267C24.3015 1.67112 23.1808 2.60695 22.2385 3.81016C21.3105 4.99108 20.5967 6.38368 20.097 7.98796C19.5973 9.59224 19.3475 11.3413 19.3475 13.2353C19.3475 14.4955 19.4518 15.662 19.6604 16.7347C19.0203 16.4399 18.3765 16.1451 17.7338 15.8507C14.3884 14.3186 11.0706 12.7991 8.44467 11.3646C4.6835 9.31004 2.34177 7.43006 0 5.54997C0.945598 8.50614 1.89118 11.4623 3.046 13.4377C4.20082 15.4131 5.5648 16.4077 7.02986 17.4262C7.22442 17.5614 7.42076 17.6971 7.61502 17.8313C8.88357 18.7079 10.0632 19.523 10.0771 19.7582C10.0932 20.0296 8.55928 19.53 7.40651 19.0304C6.25373 18.5307 5.48218 18.0311 4.71062 17.5315L4.71064 17.5315C7.17691 20.2891 9.64313 23.0466 10.1024 24.1419C10.5617 25.2372 9.01395 24.6703 7.46623 24.1035L7.4663 24.1035C10.4791 27.1396 13.4919 30.1758 16.0883 31.4338C18.6847 32.6918 20.736 32.2024 22.4231 31.6887C22.5333 31.6552 22.642 31.6215 22.7496 31.5881C24.2898 31.111 25.6242 30.6975 28.363 31.5642C30.5132 32.2446 33.529 33.714 36.7753 35.3935Z" fill="white"/>
</svg>
